<?xml version="1.0" encoding="utf-8"?>
<!-- Generator: Adobe Illustrator 18.1.0, SVG Export Plug-In . SVG Version: 6.00 Build 0)  -->
<svg version="1.1" id="Layer_1" xmlns="http://www.w3.org/2000/svg" xmlns:xlink="http://www.w3.org/1999/xlink" x="0px" y="0px"
	 viewBox="0 0 223 39" enable-background="new 0 0 223 39" xml:space="preserve">
<g>
	<polygon fill="#FFFFFF" points="26.7,27.6 15.9,38.4 15.9,38.4 0.7,38.4 26.7,12.2 	"/>
	<polygon fill="#FFFFFF" points="38.6,5.8 27.9,16.7 27.8,38.4 27.9,38.4 38.7,38.4 	"/>
	<polygon fill="#FFFFFF" points="38.6,5.8 38.6,0.5 33.3,5.8 	"/>
</g>
<g enable-background="new    ">
	<path fill="#FFFFFF" d="M75.8,24.7h-7.7L65.9,30h-1l6.5-15.7h0.9L78.9,30h-1L75.8,24.7z M70.1,19.8L68.4,24h7.1l-1.7-4.2l-1.8-4.6
		L70.1,19.8z"/>
	<path fill="#FFFFFF" d="M96.6,29.3h9.5V30H95.7V14.4h0.9V29.3z"/>
	<path fill="#FFFFFF" d="M128.4,30h-5.6V14.4h5.6c4.9,0,7.6,1.7,7.6,7.8S133.3,30,128.4,30z M128.6,29.3c4.6,0,6.5-1.7,6.5-7.1
		s-1.9-7.1-6.5-7.1h-4.9v14.1H128.6z"/>
	<path fill="#FFFFFF" d="M160.1,23.1h-5.7V30h-0.9V14.4h6.9c2.2,0,4.5,0.6,4.5,4.3c0,3.4-1.9,4.2-3.9,4.3l4.6,7h-1.1L160.1,23.1z
		 M154.4,22.3h6.4c1.6,0,3.4-0.5,3.4-3.6c0-3.1-1.8-3.6-3.4-3.6h-6.4V22.3z"/>
	<path fill="#FFFFFF" d="M181.9,14.4l3.6,5.2l2.2,3.3l2.2-3.3l3.6-5.2h1.1l-6.4,9.2V30h-0.9v-6.3l-6.4-9.2H181.9z"/>
	<path fill="#FFFFFF" d="M214.4,19.2l-2.6-3.7l0.1,5.4V30h-0.8V14.4h1.1l7.7,10.8l2.6,3.7l-0.1-5.4v-9.2h0.8V30h-1.1L214.4,19.2z"/>
</g>
</svg>
